<?xml version="1.0" encoding="iso-8859-1"?>
<!-- Generator: Adobe Illustrator 19.1.0, SVG Export Plug-In . SVG Version: 6.00 Build 0)  -->
<svg xmlns="http://www.w3.org/2000/svg" xmlns:xlink="http://www.w3.org/1999/xlink" version="1.1" id="Capa_1" x="0px" y="0px" viewBox="0 0 52.545 52.545" style="enable-background:new 0 0 52.545 52.545;" xml:space="preserve" width="512px" height="512px">
<g>
	<g>
		<circle cx="25.045" cy="48.11" r="4.435" fill="#006DF0"/>
		<path d="M39.291,14.84C39.291,6.657,32.589,0,24.196,0c-3.9,0-7.453,1.596-10.391,4.614c-0.771,0.791-0.722,2.058,0.07,2.828    c0.791,0.77,2.071,0.754,2.844-0.039C18.23,5.85,20.781,4,24.313,4c6.082,0,11.224,4.964,11.224,10.84    c0,6.077-4.892,10.838-10.819,10.838c-1.104,0-2.248,0.896-2.248,2v9.393c0,1.104,0.896,2,2,2s2-0.896,2-2v-7.532    C34.47,28.544,39.291,22.332,39.291,14.84z" fill="#006DF0"/>
	</g>
</g>
<g>
</g>
<g>
</g>
<g>
</g>
<g>
</g>
<g>
</g>
<g>
</g>
<g>
</g>
<g>
</g>
<g>
</g>
<g>
</g>
<g>
</g>
<g>
</g>
<g>
</g>
<g>
</g>
<g>
</g>
</svg>
